<svg width="25" height="25" viewBox="0 0 25 25" fill="none" xmlns="http://www.w3.org/2000/svg">
<path d="M17.5498 0C18.8997 0.149985 19.7998 0.300645 20.5498 0.600586C21.4498 1.05058 22.0498 1.3506 22.7998 2.10059C23.5498 2.85059 23.9998 3.60059 24.2998 4.35059C24.5998 5.10055 24.9004 6.00069 24.9004 7.35059V17.5498C24.7504 18.8997 24.5997 19.7998 24.2998 20.5498C23.8498 21.4498 23.5498 22.0498 22.7998 22.7998C22.0498 23.5498 21.2998 23.9998 20.5498 24.2998C19.7998 24.5998 18.8997 24.9004 17.5498 24.9004H7.35059C6.0007 24.7504 5.10055 24.5998 4.35059 24.2998C3.45059 23.8498 2.85059 23.5498 2.10059 22.7998C1.3506 22.0498 0.900584 21.2998 0.600586 20.5498C0.300616 19.7998 0 18.8997 0 17.5498V7.35059C0.149987 6.0007 0.300637 5.10055 0.600586 4.35059C1.05059 3.45059 1.35059 2.85059 2.10059 2.10059C2.85058 1.35059 3.60059 0.900585 4.35059 0.600586C5.10055 0.300613 6.00071 0 7.35059 0H17.5498ZM12.4502 6C8.85021 6.00001 6.00001 8.85021 6 12.4502C6 16.0502 8.8502 18.9004 12.4502 18.9004C16.0502 18.9004 18.9004 16.0502 18.9004 12.4502C18.9004 8.8502 16.0502 6 12.4502 6ZM12.4502 8.25C14.7002 8.25 16.6504 10.0502 16.6504 12.4502C16.6504 14.7002 14.7002 16.6504 12.4502 16.6504C10.2002 16.6504 8.25 14.8502 8.25 12.4502C8.25001 10.2002 10.0502 8.25001 12.4502 8.25ZM19.0498 4.35059C18.2216 4.3508 17.5498 5.02229 17.5498 5.85059C17.55 6.67871 18.2217 7.35037 19.0498 7.35059C19.8781 7.35059 20.5496 6.67884 20.5498 5.85059C20.5498 5.02216 19.8782 4.35059 19.0498 4.35059Z" fill="#1C4DCB"/>
</svg>
