<svg width="22" height="25" viewBox="0 0 22 25" fill="none" xmlns="http://www.w3.org/2000/svg">
<path d="M15.6934 0.0166016C15.6934 0.373234 15.7267 0.724541 15.7881 1.06445C16.0833 2.63574 17.013 3.98387 18.3047 4.8252C19.2066 5.41586 20.2753 5.75583 21.4277 5.75586V9.87988C19.2898 9.87988 17.308 9.19411 15.6934 8.03516V16.4219C15.6932 20.6065 12.2856 24.0165 8.10449 24.0166C6.48995 24.0166 4.98629 23.5042 3.75586 22.6406C1.79621 21.2643 0.515733 18.9905 0.515625 16.4219C0.515625 12.2315 3.91743 8.82661 8.09863 8.83203C8.44935 8.83203 8.78904 8.85969 9.12305 8.9043V9.87988L9.11133 9.88574L9.12305 9.88477V13.1172C8.80017 13.0169 8.45492 12.9561 8.09863 12.9561C6.18899 12.9561 4.63574 14.5106 4.63574 16.4219C4.63587 17.7536 5.39282 18.9071 6.49512 19.4922C6.50539 19.5062 6.51591 19.5203 6.52637 19.5342L6.54492 19.5586C6.53225 19.5341 6.51772 19.5098 6.50098 19.4863C6.98532 19.7426 7.53131 19.8877 8.11035 19.8877C9.9752 19.8875 11.5006 18.3997 11.5674 16.5498L11.5732 0.0166016H15.6934Z" fill="#1C4DCB"/>
</svg>
